PathFileType	4	(X/Y/Z)	Patient4_TMGait_0pt4_03_left_33.trc.trc
DataRate	CameraRate	NumFrames	NumMarkers	Units	OrigDataRate	OrigDataStartFrame	OrigNumFrames
72.538860103627	72.538860103627	4	33	mm	72.538860103627	36	       141
Frame#	Time	Sacral			L.Shoulder			Chest			R.Shoulder			Neck			R.ASIS			L.ASIS			R.Thigh.Superior			R.Thigh.Lateral			R.Thigh.Inferior			R.Patella			L.Thigh.Superior			L.Thigh.Lateral			L.Thigh.Inferior			L.Patella			L.Shank.Superior			L.Shank.Lateral			L.Shank.Inferior			R.Shank.Superior			R.Shank.Lateral			R.Shank.Inferior			R.Heel			R.Midfoot.Superior			R.Midfoot.Lateral			R.Toe			L.Heel			L.Midfoot.Lateral			L.Midfoot.Superior			L.Toe			L.Elbow			L.Wrist			R.Elbow			R.Wrist			
		X1	Y1	Z1	X2	Y2	Z2	X3	Y3	Z3	X4	Y4	Z4	X5	Y5	Z5	X6	Y6	Z6	X7	Y7	Z7	X8	Y8	Z8	X9	Y9	Z9	X10	Y10	Z10	X11	Y11	Z11	X12	Y12	Z12	X13	Y13	Z13	X14	Y14	Z14	X15	Y15	Z15	X16	Y16	Z16	X17	Y17	Z17	X18	Y18	Z18	X19	Y19	Z19	X20	Y20	Z20	X21	Y21	Z21	X22	Y22	Z22	X23	Y23	Z23	X24	Y24	Z24	X25	Y25	Z25	X26	Y26	Z26	X27	Y27	Z27	X28	Y28	Z28	X29	Y29	Z29	X30	Y30	Z30	X31	Y31	Z31	X32	Y32	Z32	X33	Y33	Z33	

36	44.032500000000	872.172732514370	1004.837549896368	466.215578108160	1016.327098671849	1427.973870603643	257.729098798196	1144.209221758369	1366.625913712636	402.779186403021	1086.406978838295	1441.973444081527	586.377816411630	1019.219387906793	1492.722584501907	413.099201459055	1110.785152928326	939.228286317958	557.052515992228	1068.799676303562	959.252293153137	286.400220796912	1116.712025413269	726.530720790118	537.123632987612	1023.253444848982	628.735862479090	607.946555611228	1086.891987930089	561.941083453609	529.456854677903	1072.056748777685	464.805756935489	545.913878097689	1141.637736548395	763.345792114615	315.002668782096	1068.658765500994	636.251009673957	255.126008315012	1168.254904107721	570.907477451617	310.897170009362	1178.281545256002	500.255232962715	316.903388702388	1155.001483495214	425.707083916415	309.165821927100	1069.246037888994	306.820102493102	260.828521076086	1132.981735344925	197.125700532729	324.763059869393	1012.083186391028	390.537552326661	555.949892979637	910.073935704685	320.473794338073	623.208681325989	917.638296965691	213.122602384793	566.893391502475	740.643786149924	84.561884462852	543.901499675352	916.887966142203	101.845005897881	582.599022733688	819.363074043701	57.618831252017	618.606836544668	1023.421879398705	37.411127517728	611.553916941332	1017.611961905011	38.454835295717	371.635202151904	1086.190167643189	35.679109940741	286.430576465621	1170.047329246464	97.968476353068	309.051706773886	1296.778373126984	48.633487334000	271.667172172499	947.269291616834	1076.342488692133	159.364142132680	998.595158528652	819.660335768642	145.671589862909	1169.649944060539	1107.254044456948	711.762049436828	1412.921150029225	1040.382899247632	669.452834873967	
37	44.046285714286	872.351042229407	1005.431474351599	461.921655505217	1017.344892023215	1428.701964183289	253.693981121918	1144.265583510445	1367.613700169885	399.645553697699	1085.147051502644	1442.968479939570	582.776118594816	1019.022345407134	1493.487594493101	409.126442608146	1110.382264653742	940.240303947149	553.927051564338	1070.026207956501	959.996797176556	283.243774793976	1120.070285605270	728.030875192539	534.364418689354	1028.867205076254	628.889002222611	605.498254640058	1094.457916491596	562.800283387774	527.397300214335	1080.806349702664	464.011530307230	545.393953264804	1141.506577047315	762.724127497075	311.324925450154	1066.600735665187	636.103488684425	252.731258897736	1165.607830640895	570.009975396279	308.377827748535	1175.015493009340	499.661763542466	315.141570981585	1151.520767766381	425.195765349906	307.668214224214	1065.397175097510	306.525681587014	259.810491216963	1128.297532687805	196.811012756762	324.261764783384	1018.479610284587	390.704149140472	555.269059850670	913.992324258111	324.064768354878	622.179315642796	919.125385922358	216.087607593523	566.917390632858	738.500891144903	93.417659486992	544.102996478919	915.084054676569	103.389255136792	582.870145437403	815.919389977927	63.012715957137	618.590836225976	1018.198202049657	36.931145920269	611.508072311613	1012.181144132730	38.455236467374	371.568433204263	1080.730760072715	35.608979008447	286.336982264458	1164.639662421887	97.827962491133	308.966037192074	1291.393328711280	48.348011021430	271.574785308238	954.599757910875	1076.342308149601	152.714205508001	1011.834249962575	821.086887941747	136.591899686757	1163.887209788323	1107.275902848856	709.503626309456	1402.002431696516	1020.849588025563	669.041987742678	
38	44.060071428571	872.330708013017	1005.935778960714	457.636154426488	1018.535841616199	1429.340958715325	249.695522634944	1144.340313985587	1368.453068719967	396.645911521254	1083.792612303700	1443.807102589256	579.268040095412	1018.845550062995	1494.149755188495	405.206035726041	1109.774774050031	941.135419146530	550.907960814568	1071.137997824943	960.643862661002	280.195321110230	1123.901833728860	729.696155818795	531.679677521907	1035.228115063313	629.031840500405	603.113987162918	1102.911650852853	563.830024834670	525.409107797178	1090.515773419940	463.427972507266	544.815787515792	1141.115139837786	761.950919606158	307.869348578777	1064.455997285631	635.947857604855	250.331771393651	1162.741402388399	569.097172813619	306.056074413370	1171.506281072608	499.020352649197	313.439979072771	1147.812874243723	424.656131803100	306.199348203020	1061.390417910813	306.159479090787	258.795989079227	1123.502723477978	196.459483817299	323.766493062710	1025.872566700250	391.031656912629	554.530905519549	918.978232344345	328.027146580777	621.151681047504	921.442948984434	219.523185759242	566.919142719897	737.190064175525	103.516875719440	544.274455309028	913.779039527942	105.359834737239	583.053477571060	812.988737968898	69.440321553461	618.559391265482	1012.999922034504	36.336931109938	611.490421635208	1006.690763816849	38.447236204114	371.531689638743	1075.207203818953	35.524363420945	286.271218916328	1159.195705229296	97.635840224039	308.912941600558	1285.962118489563	47.955345991190	271.510096455482	962.085897812617	1076.473763483125	146.012066259857	1025.477533348812	822.844525516020	127.514721429136	1157.877591636750	1107.186162273500	707.252545718154	1389.258598351246	1001.575885809730	668.709866371952	
39	44.073857142857	872.083648537488	1006.319173939870	453.396163866525	1019.863495309863	1429.850156997688	245.775697817930	1144.419410298574	1369.099527012610	393.802517466083	1082.365086450731	1444.458667891127	575.881973877544	1018.694883438121	1494.689319084617	401.359884388461	1108.962773459656	941.889151918607	548.019870859182	1072.089520846776	961.172226158284	277.263859587138	1128.149354687026	731.555883337871	529.073225636367	1042.267256666966	629.218064995608	600.791312023676	1112.145686127348	565.085233001779	523.482305298169	1101.067676065557	463.135466728055	544.118682501939	1140.497178370971	761.097485698486	304.704276562562	1062.349206851744	635.813113263590	247.922616907828	1159.777823145096	568.207020144347	303.936863543468	1167.872934905782	498.345537701057	311.796286192121	1143.990455538737	424.093011473365	304.759939005978	1057.322841729689	305.745545751167	257.748766034939	1118.654669575879	196.080673241073	323.270946068202	1034.182665286400	391.574548954637	553.687719113293	925.004195646673	332.373221294194	620.106109755327	924.578131961273	223.464752929402	566.869152987082	736.802914612481	114.850906527720	544.406176578548	912.998163995405	107.860603654299	583.140032948414	810.661129639619	76.954793376522	618.512119456930	1007.876481861340	35.611226854930	611.502693863128	1001.161765897003	38.436408414594	371.503286416420	1069.645208768757	35.435586883894	286.215170959719	1153.732676136052	97.414080451410	308.876605003237	1280.505483480718	47.490640633950	271.463677698391	969.736115214791	1076.697710435433	139.289636915248	1039.492672897914	824.907256787654	118.460016535128	1151.492372457339	1106.899784981353	704.981297701120	1374.684202666578	982.775915132272	668.507376579813	
